<svg id="visual" viewBox="0 0 900 600" width="900" height="600" xmlns="http://www.w3.org/2000/svg" xmlns:xlink="http://www.w3.org/1999/xlink" version="1.1"><g transform="translate(414.85565681932553 321.8773275337804)"><path d="M115.2 -169.8C152.2 -155.5 187.1 -128.4 214.7 -91.2C242.3 -54 262.7 -6.7 263.5 43C264.3 92.6 245.5 144.5 205.4 161.7C165.2 178.9 103.8 161.4 57.1 158.8C10.5 156.1 -21.2 168.2 -61.3 172.8C-101.3 177.4 -149.7 174.5 -173.3 149.1C-197 123.7 -196 75.9 -188.5 35.7C-180.9 -4.6 -166.9 -37.2 -161.3 -83.8C-155.8 -130.4 -158.7 -191 -133.2 -210.5C-107.8 -230 -53.9 -208.5 -7.4 -197C39.1 -185.5 78.2 -184 115.2 -169.8" fill="#BB004B"></path></g></svg>