<svg width="370" height="69" viewBox="0 0 370 69" fill="none" xmlns="http://www.w3.org/2000/svg">
<path d="M30.0227 1.5C25.194 1.5 20.8797 4.51641 19.2218 9.05148L3.50212 52.0515C0.759125 59.5547 6.31407 67.5 14.303 67.5H344.878C350.043 67.5 354.574 64.0573 355.958 59.0818L367.918 16.0818C369.957 8.75312 364.446 1.5 356.839 1.5H30.0227Z" stroke="white" stroke-width="3"/>
<path d="M63.28 47H60.48L45 23.48V47H42.2V19.04H45L60.48 42.52V19.04H63.28V47ZM79.1819 47.32C77.1285 47.32 75.2752 46.8667 73.6219 45.96C71.9952 45.0267 70.7019 43.72 69.7419 42.04C68.8085 40.3333 68.3419 38.3467 68.3419 36.08C68.3419 33.8133 68.8219 31.84 69.7819 30.16C70.7419 28.4533 72.0485 27.1467 73.7019 26.24C75.3552 25.3067 77.2085 24.84 79.2619 24.84C81.3152 24.84 83.1685 25.3067 84.8219 26.24C86.5019 27.1467 87.8085 28.4533 88.7419 30.16C89.7019 31.84 90.1819 33.8133 90.1819 36.08C90.1819 38.32 89.7019 40.2933 88.7419 42C87.7819 43.7067 86.4619 45.0267 84.7819 45.96C83.1019 46.8667 81.2352 47.32 79.1819 47.32ZM79.1819 44.88C80.6219 44.88 81.9552 44.56 83.1819 43.92C84.4085 43.2533 85.3952 42.2667 86.1419 40.96C86.9152 39.6267 87.3019 38 87.3019 36.08C87.3019 34.16 86.9285 32.5467 86.1819 31.24C85.4352 29.9067 84.4485 28.92 83.2219 28.28C81.9952 27.6133 80.6619 27.28 79.2219 27.28C77.7819 27.28 76.4485 27.6133 75.2219 28.28C73.9952 28.92 73.0085 29.9067 72.2619 31.24C71.5419 32.5467 71.1819 34.16 71.1819 36.08C71.1819 38 71.5419 39.6267 72.2619 40.96C73.0085 42.2667 73.9819 43.2533 75.1819 43.92C76.4085 44.56 77.7419 44.88 79.1819 44.88ZM114.206 25.16V47H111.406V43.16C110.766 44.52 109.779 45.56 108.446 46.28C107.113 47 105.619 47.36 103.966 47.36C101.353 47.36 99.2193 46.56 97.5659 44.96C95.9126 43.3333 95.0859 40.9867 95.0859 37.92V25.16H97.8459V37.6C97.8459 39.9733 98.4326 41.7867 99.6059 43.04C100.806 44.2933 102.433 44.92 104.486 44.92C106.593 44.92 108.273 44.2533 109.526 42.92C110.779 41.5867 111.406 39.6267 111.406 37.04V25.16H114.206ZM128.118 47.32C125.612 47.32 123.558 46.7467 121.958 45.6C120.385 44.4267 119.505 42.84 119.318 40.84H122.198C122.332 42.0667 122.905 43.0667 123.918 43.84C124.958 44.5867 126.345 44.96 128.078 44.96C129.598 44.96 130.785 44.6 131.638 43.88C132.518 43.16 132.958 42.2667 132.958 41.2C132.958 40.4533 132.718 39.84 132.238 39.36C131.758 38.88 131.145 38.5067 130.398 38.24C129.678 37.9467 128.692 37.64 127.438 37.32C125.812 36.8933 124.492 36.4667 123.478 36.04C122.465 35.6133 121.598 34.9867 120.878 34.16C120.185 33.3067 119.838 32.1733 119.838 30.76C119.838 29.6933 120.158 28.7067 120.798 27.8C121.438 26.8933 122.345 26.1733 123.518 25.64C124.692 25.1067 126.025 24.84 127.518 24.84C129.865 24.84 131.758 25.44 133.198 26.64C134.638 27.8133 135.412 29.44 135.518 31.52H132.718C132.638 30.24 132.132 29.2133 131.198 28.44C130.292 27.64 129.038 27.24 127.438 27.24C126.025 27.24 124.878 27.5733 123.998 28.24C123.118 28.9067 122.678 29.7333 122.678 30.72C122.678 31.5733 122.932 32.28 123.438 32.84C123.972 33.3733 124.625 33.8 125.398 34.12C126.172 34.4133 127.212 34.7467 128.518 35.12C130.092 35.5467 131.345 35.96 132.278 36.36C133.212 36.76 134.012 37.3467 134.678 38.12C135.345 38.8933 135.692 39.92 135.718 41.2C135.718 42.3733 135.398 43.4267 134.758 44.36C134.118 45.2667 133.225 45.9867 132.078 46.52C130.932 47.0533 129.612 47.32 128.118 47.32ZM154.766 29.04C155.379 27.68 156.312 26.6267 157.566 25.88C158.846 25.1333 160.406 24.76 162.246 24.76V27.68H161.486C159.459 27.68 157.832 28.2267 156.606 29.32C155.379 30.4133 154.766 32.24 154.766 34.8V47H151.966V25.16H154.766V29.04ZM186.218 34.96C186.218 35.92 186.191 36.6533 186.138 37.16H168.018C168.098 38.8133 168.498 40.2267 169.218 41.4C169.938 42.5733 170.884 43.4667 172.058 44.08C173.231 44.6667 174.511 44.96 175.898 44.96C177.711 44.96 179.231 44.52 180.458 43.64C181.711 42.76 182.538 41.5733 182.938 40.08H185.898C185.364 42.2133 184.218 43.96 182.458 45.32C180.724 46.6533 178.538 47.32 175.898 47.32C173.844 47.32 172.004 46.8667 170.378 45.96C168.751 45.0267 167.471 43.72 166.538 42.04C165.631 40.3333 165.178 38.3467 165.178 36.08C165.178 33.8133 165.631 31.8267 166.538 30.12C167.444 28.4133 168.711 27.1067 170.338 26.2C171.964 25.2933 173.818 24.84 175.898 24.84C177.978 24.84 179.791 25.2933 181.338 26.2C182.911 27.1067 184.111 28.3333 184.938 29.88C185.791 31.4 186.218 33.0933 186.218 34.96ZM183.378 34.88C183.404 33.2533 183.071 31.8667 182.378 30.72C181.711 29.5733 180.791 28.7067 179.618 28.12C178.444 27.5333 177.164 27.24 175.778 27.24C173.698 27.24 171.924 27.9067 170.458 29.24C168.991 30.5733 168.178 32.4533 168.018 34.88H183.378ZM192.941 21.04C192.381 21.04 191.901 20.84 191.501 20.44C191.101 20.04 190.901 19.5467 190.901 18.96C190.901 18.3733 191.101 17.8933 191.501 17.52C191.901 17.12 192.381 16.92 192.941 16.92C193.501 16.92 193.967 17.12 194.341 17.52C194.741 17.8933 194.941 18.3733 194.941 18.96C194.941 19.5467 194.741 20.04 194.341 20.44C193.967 20.84 193.501 21.04 192.941 21.04ZM194.301 52.16C194.301 53.92 193.861 55.2133 192.981 56.04C192.101 56.8933 190.781 57.32 189.021 57.32H187.061V54.92H188.581C189.621 54.92 190.367 54.6933 190.821 54.24C191.274 53.8133 191.501 53.08 191.501 52.04V25.16H194.301V52.16ZM210.276 47.32C208.222 47.32 206.369 46.8667 204.716 45.96C203.089 45.0267 201.796 43.72 200.836 42.04C199.902 40.3333 199.436 38.3467 199.436 36.08C199.436 33.8133 199.916 31.84 200.876 30.16C201.836 28.4533 203.142 27.1467 204.796 26.24C206.449 25.3067 208.302 24.84 210.356 24.84C212.409 24.84 214.262 25.3067 215.916 26.24C217.596 27.1467 218.902 28.4533 219.836 30.16C220.796 31.84 221.276 33.8133 221.276 36.08C221.276 38.32 220.796 40.2933 219.836 42C218.876 43.7067 217.556 45.0267 215.876 45.96C214.196 46.8667 212.329 47.32 210.276 47.32ZM210.276 44.88C211.716 44.88 213.049 44.56 214.276 43.92C215.502 43.2533 216.489 42.2667 217.236 40.96C218.009 39.6267 218.396 38 218.396 36.08C218.396 34.16 218.022 32.5467 217.276 31.24C216.529 29.9067 215.542 28.92 214.316 28.28C213.089 27.6133 211.756 27.28 210.316 27.28C208.876 27.28 207.542 27.6133 206.316 28.28C205.089 28.92 204.102 29.9067 203.356 31.24C202.636 32.5467 202.276 34.16 202.276 36.08C202.276 38 202.636 39.6267 203.356 40.96C204.102 42.2667 205.076 43.2533 206.276 43.92C207.502 44.56 208.836 44.88 210.276 44.88ZM227.78 21.04C227.22 21.04 226.74 20.84 226.34 20.44C225.94 20.04 225.74 19.5467 225.74 18.96C225.74 18.3733 225.94 17.8933 226.34 17.52C226.74 17.12 227.22 16.92 227.78 16.92C228.34 16.92 228.82 17.12 229.22 17.52C229.62 17.8933 229.82 18.3733 229.82 18.96C229.82 19.5467 229.62 20.04 229.22 20.44C228.82 20.84 228.34 21.04 227.78 21.04ZM229.18 25.16V47H226.38V25.16H229.18ZM245.76 24.76C248.374 24.76 250.507 25.5733 252.16 27.2C253.814 28.8 254.64 31.1333 254.64 34.2V47H251.88V34.52C251.88 32.1467 251.28 30.3333 250.08 29.08C248.907 27.8267 247.294 27.2 245.24 27.2C243.134 27.2 241.454 27.8667 240.2 29.2C238.947 30.5333 238.32 32.4933 238.32 35.08V47H235.52V25.16H238.32V28.88C239.014 27.5467 240.014 26.5333 241.32 25.84C242.627 25.12 244.107 24.76 245.76 24.76ZM259.553 36.04C259.553 33.8 260.006 31.84 260.913 30.16C261.819 28.4533 263.059 27.1467 264.633 26.24C266.233 25.3067 268.033 24.84 270.033 24.84C271.953 24.84 273.686 25.3067 275.233 26.24C276.779 27.1733 277.913 28.3867 278.633 29.88V17.4H281.433V47H278.633V42.12C277.966 43.64 276.873 44.8933 275.353 45.88C273.833 46.84 272.046 47.32 269.993 47.32C267.993 47.32 266.193 46.8533 264.593 45.92C263.019 44.9867 261.779 43.6667 260.873 41.96C259.993 40.2533 259.553 38.28 259.553 36.04ZM278.633 36.08C278.633 34.32 278.273 32.7733 277.553 31.44C276.833 30.1067 275.846 29.08 274.593 28.36C273.366 27.64 272.006 27.28 270.513 27.28C268.966 27.28 267.579 27.6267 266.353 28.32C265.126 29.0133 264.153 30.0267 263.433 31.36C262.739 32.6667 262.393 34.2267 262.393 36.04C262.393 37.8267 262.739 39.4 263.433 40.76C264.153 42.0933 265.126 43.12 266.353 43.84C267.579 44.5333 268.966 44.88 270.513 44.88C272.006 44.88 273.366 44.52 274.593 43.8C275.846 43.08 276.833 42.0533 277.553 40.72C278.273 39.3867 278.633 37.84 278.633 36.08ZM290.625 29.04C291.238 27.68 292.172 26.6267 293.425 25.88C294.705 25.1333 296.265 24.76 298.105 24.76V27.68H297.345C295.318 27.68 293.692 28.2267 292.465 29.32C291.238 30.4133 290.625 32.24 290.625 34.8V47H287.825V25.16H290.625V29.04ZM322.077 34.96C322.077 35.92 322.051 36.6533 321.997 37.16H303.877C303.957 38.8133 304.357 40.2267 305.077 41.4C305.797 42.5733 306.744 43.4667 307.917 44.08C309.091 44.6667 310.371 44.96 311.757 44.96C313.571 44.96 315.091 44.52 316.317 43.64C317.571 42.76 318.397 41.5733 318.797 40.08H321.757C321.224 42.2133 320.077 43.96 318.317 45.32C316.584 46.6533 314.397 47.32 311.757 47.32C309.704 47.32 307.864 46.8667 306.237 45.96C304.611 45.0267 303.331 43.72 302.397 42.04C301.491 40.3333 301.037 38.3467 301.037 36.08C301.037 33.8133 301.491 31.8267 302.397 30.12C303.304 28.4133 304.571 27.1067 306.197 26.2C307.824 25.2933 309.677 24.84 311.757 24.84C313.837 24.84 315.651 25.2933 317.197 26.2C318.771 27.1067 319.971 28.3333 320.797 29.88C321.651 31.4 322.077 33.0933 322.077 34.96ZM319.237 34.88C319.264 33.2533 318.931 31.8667 318.237 30.72C317.571 29.5733 316.651 28.7067 315.477 28.12C314.304 27.5333 313.024 27.24 311.637 27.24C309.557 27.24 307.784 27.9067 306.317 29.24C304.851 30.5733 304.037 32.4533 303.877 34.88H319.237Z" fill="white"/>
</svg>
